# xmcd
#
# Track frame offsets:
#	150
#	11171
#	27238
#	39228
#	52650
#	65850
#	77245
#	90020
#	102366
#	114303
#
# Disc length: 1710 seconds
#
# Revision: 1
# Processed by: cddbd v1.5.2PL0 Copyright (c) Steve Scherf et al.
# Submitted via: audiograbber 1.83.01
#
DISCID=6e06ac0a
DTITLE=Cathille Harmon - Zoom Zoom Zoom
DYEAR=1900
DGENRE=
TTITLE0=Zoom, Zoom, Zoom
TTITLE1=Let It Rain
TTITLE2=Back To The School Blues
TTITLE3=Dancing On A Rainbow
TTITLE4=Low Down Dirty Blues
TTITLE5=It´s So Easy
TTITLE6=Broadway Baby
TTITLE7=How Much Is That Doggie In The Window
TTITLE8=So Now Then
TTITLE9=Slumber Party
EXTD=
EXTT0=
EXTT1=
EXTT2=
EXTT3=
EXTT4=
EXTT5=
EXTT6=
EXTT7=
EXTT8=
EXTT9=
PLAYORDER=
